<svg width="20" height="19" viewBox="0 0 20 19" fill="none" xmlns="http://www.w3.org/2000/svg">
<path d="M17.4524 0.968475H16.3576V2.77899C16.3576 3.34744 15.8944 3.8106 15.3471 3.8106H14.3155C13.747 3.8106 13.2839 3.34744 13.2839 2.77899L13.284 0.968475H6.69461V2.77899C6.69461 3.34744 6.23146 3.8106 5.68413 3.8106H4.65252C4.08407 3.8106 3.62092 3.34744 3.62092 2.77899L3.62106 0.968475H2.54742C1.13691 0.968475 0 2.1264 0 3.5159V16.4C0 17.8105 1.13676 18.9473 2.54742 18.9473H17.4526C18.8631 18.9473 20 17.8105 20 16.3999L19.9999 3.51575C19.9999 2.12625 18.8631 0.968475 17.4524 0.968475H17.4524ZM18.4208 16.3999C18.4208 16.9262 17.9787 17.3684 17.4524 17.3684H2.54721C2.02089 17.3684 1.57872 16.9262 1.57872 16.3999V6.54738H18.4207L18.4208 16.3999Z" fill="#EC6648"/>
<path d="M4.10523 11.1157H6.02104C6.37891 11.1157 6.67363 10.821 6.67363 10.4631V8.98949C6.67363 8.63161 6.3789 8.3369 6.02104 8.3369H4.10523C3.74735 8.3369 3.45264 8.63163 3.45264 8.98949V10.4631C3.45264 10.821 3.74736 11.1157 4.10523 11.1157Z" fill="#EC6648"/>
<path d="M13.9788 11.1157H15.8946C16.2524 11.1157 16.5472 10.821 16.5472 10.4631V8.98949C16.5472 8.63161 16.2524 8.3369 15.8946 8.3369H13.9788C13.6209 8.3369 13.3262 8.63163 13.3262 8.98949V10.4631C13.3262 10.821 13.6209 11.1157 13.9788 11.1157Z" fill="#EC6648"/>
<path d="M9.03125 11.1157H10.9471C11.3049 11.1157 11.5997 10.821 11.5997 10.4631V8.98949C11.5997 8.63161 11.3049 8.3369 10.9471 8.3369H9.03125C8.67338 8.3369 8.37866 8.63163 8.37866 8.98949V10.4631C8.39981 10.821 8.67339 11.1157 9.03125 11.1157Z" fill="#EC6648"/>
<path d="M4.10523 15.6209H6.02104C6.37891 15.6209 6.67363 15.3262 6.67363 14.9684V13.4947C6.67363 13.1368 6.3789 12.8421 6.02104 12.8421H4.10523C3.74735 12.8421 3.45264 13.1369 3.45264 13.4947V14.9684C3.45264 15.3472 3.74736 15.6209 4.10523 15.6209Z" fill="#EC6648"/>
<path d="M13.9788 15.6209H15.8946C16.2524 15.6209 16.5472 15.3262 16.5472 14.9684V13.4947C16.5472 13.1368 16.2524 12.8421 15.8946 12.8421H13.9788C13.6209 12.8421 13.3262 13.1369 13.3262 13.4947V14.9684C13.3262 15.3472 13.6209 15.6209 13.9788 15.6209Z" fill="#EC6648"/>
<path d="M9.03125 15.6209H10.9471C11.3049 15.6209 11.5997 15.3262 11.5997 14.9684V13.4947C11.5997 13.1368 11.3049 12.8421 10.9471 12.8421H9.03125C8.67338 12.8421 8.37866 13.1369 8.37866 13.4947V14.9684C8.39981 15.3472 8.67339 15.6209 9.03125 15.6209Z" fill="#EC6648"/>
<path d="M4.65276 3.15787H5.68437C5.89495 3.15787 6.04224 2.98943 6.04224 2.8L6.0421 0.357873C6.0421 0.147288 5.87366 0 5.68422 0H4.65261C4.44203 0 4.29474 0.168439 4.29474 0.357873V2.77883C4.27374 2.98942 4.44218 3.15785 4.65276 3.15785V3.15787Z" fill="#EC6648"/>
<path d="M14.3154 3.15787H15.347C15.5576 3.15787 15.7049 2.98943 15.7049 2.8V0.357873C15.7049 0.147288 15.5364 0 15.347 0H14.3154C14.1048 0 13.9575 0.168439 13.9575 0.357873V2.77883C13.9575 2.98942 14.126 3.15785 14.3154 3.15785V3.15787Z" fill="#EC6648"/>
</svg>
