<svg width="25" height="18" viewBox="0 0 25 18" fill="none" xmlns="http://www.w3.org/2000/svg">
<path d="M0 1.26721C0 0.56729 0.559557 0 1.24994 0H23.7501C24.4404 0 25 0.56729 25 1.26721C25 1.96713 24.4404 2.53442 23.7501 2.53442H1.24994C0.559557 2.53442 0 1.96713 0 1.26721Z" fill="white"/>
<path d="M3.75 8.87091C3.75 8.17099 4.30956 7.6037 4.99994 7.6037H20C20.6904 7.6037 21.25 8.17099 21.25 8.87091C21.25 9.57083 20.6904 10.1381 20 10.1381H4.99994C4.30956 10.1381 3.75 9.57083 3.75 8.87091Z" fill="white"/>
<path d="M8.74986 15.2075C8.05948 15.2075 7.49992 15.7748 7.49992 16.4747C7.49992 17.1746 8.05948 17.7419 8.74986 17.7419H16.2499C16.9403 17.7419 17.4998 17.1746 17.4998 16.4747C17.4998 15.7748 16.9403 15.2075 16.2499 15.2075H8.74986Z" fill="white"/>
</svg>
