<svg width="16" height="10" viewBox="0 0 16 10" fill="none" xmlns="http://www.w3.org/2000/svg">
<path d="M14.6089 3.16762L14.6088 3.16761C12.988 1.24103 10.6065 0.125 8.07586 0.125H8.06864C5.49847 0.125 3.07011 1.26246 1.40204 3.23622L14.6089 3.16762ZM14.6089 3.16762L15.7592 4.53449C15.7592 4.53449 15.7592 4.5345 15.7592 4.5345C15.9121 4.71624 15.9139 4.98731 15.7628 5.16694L15.7622 5.16765M14.6089 3.16762L15.7622 5.16765M15.7622 5.16765L14.6443 6.51628L15.7622 5.16765ZM0.240826 4.61378L1.40194 3.23634L1.34161 6.58524L0.238103 5.24371L0.23784 5.2434C0.0855862 5.05954 0.0882189 4.79518 0.240826 4.61378ZM13.8918 5.89356L13.892 5.8933L14.6853 4.934L14.7516 4.85383L14.6848 4.77408L13.8662 3.79671L13.8659 3.79642C12.4287 2.0914 10.3201 1.10121 8.07582 1.10121H8.06861C5.78443 1.10121 3.6255 2.11687 2.1451 3.8684L2.14485 3.86869L1.31175 4.86046L1.24471 4.94027L1.31116 5.02056L2.09013 5.96182C3.52764 7.69984 5.65098 8.7084 7.92086 8.7084H7.92807C10.234 8.7084 12.4078 7.67807 13.8918 5.89356ZM7.91699 9.68458C5.35777 9.68458 2.95894 8.54729 1.34169 6.58534L14.6442 6.51646C12.9725 8.52585 10.5264 9.68458 7.92781 9.68458H7.91699Z" fill="white" stroke="white" stroke-width="0.25"/>
<path d="M5.45825 4.90528C5.45825 3.50636 6.59613 2.3651 7.99843 2.3651C9.40072 2.3651 10.5386 3.50636 10.5386 4.90528C10.5386 6.30408 9.39723 7.44545 7.99843 7.44545C6.59962 7.44545 5.45825 6.30408 5.45825 4.90528ZM6.43443 4.90531C6.43443 5.76779 7.13599 6.4693 7.99843 6.4693C8.8609 6.4693 9.56242 5.76778 9.56242 4.90531C9.56242 4.04284 8.8609 3.34132 7.99843 3.34132C7.13595 3.34132 6.43443 4.04284 6.43443 4.90531Z" fill="white" stroke="white" stroke-width="0.25"/>
</svg>
